<?xml version="1.0" standalone="no"?>
<!DOCTYPE svg PUBLIC "-//W3C//DTD SVG 20010904//EN"
 "http://www.w3.org/TR/2001/REC-SVG-20010904/DTD/svg10.dtd">
<svg version="1.0" xmlns="http://www.w3.org/2000/svg"
 width="100.000000pt" height="100.000000pt" viewBox="0 0 100.000000 100.000000"
 preserveAspectRatio="xMidYMid meet">
<metadata>
Created by potrace 1.11, written by Peter Selinger 2001-2013
</metadata>
<g transform="translate(0.000000,100.000000) scale(0.100000,-0.100000)"
fill="#000000" stroke="none">
<path d="M0 500 l0 -500 500 0 500 0 0 500 0 500 -500 0 -500 0 0 -500z m450
247 c0 -60 -4 -77 -19 -91 -11 -10 -29 -39 -40 -66 -45 -104 -36 -192 25 -259
27 -31 34 -47 34 -80 l0 -41 -74 0 -75 0 -3 53 -3 52 -127 3 -128 3 0 59 c0
51 4 64 29 93 46 52 153 217 185 285 l30 62 83 0 83 0 0 -73z m480 -11 l0 -64
-85 -7 c-46 -4 -91 -5 -99 -2 -17 7 -26 -13 -26 -54 0 -21 5 -29 17 -29 9 0
27 -10 41 -22 22 -22 24 -22 34 -5 14 25 54 15 96 -26 93 -89 54 -261 -73
-318 -41 -19 -173 -24 -240 -10 -38 8 -44 39 -15 86 21 34 22 34 90 33 70 -2
91 7 111 43 15 28 -9 67 -49 80 -20 7 -63 9 -99 6 l-65 -5 6 32 c3 17 8 97 12
179 l7 147 168 0 169 0 0 -64z m-390 -316 c0 -5 -2 -10 -4 -10 -3 0 -8 5 -11
10 -3 6 -1 10 4 10 6 0 11 -4 11 -10z"/>
<path d="M243 523 c-28 -45 -49 -84 -45 -87 12 -12 93 -6 98 7 3 8 4 47 2 87
l-3 74 -52 -81z"/>
</g>
</svg>
